<svg xmlns="http://www.w3.org/2000/svg" viewBox="0 0 60.54 54.72"><defs><style>.cls-1{fill:#f0f0f1}</style></defs><g id="Layer_2" data-name="Layer 2"><g id="Layer_1-2" data-name="Layer 1"><path class="cls-1" d="M0 11.76v42a1 1 0 0 0 1 1h41.92a1 1 0 0 0 1-1V33.79L37 26.86a3.61 3.61 0 0 1 0-5.09l6.93-6.93V1a1 1 0 0 0-1-1H12.44m24.15 18.54-1.76 1.76a5.69 5.69 0 0 0 0 8.06l8.05 8-.29.29-11.93 11.97a5.1 5.1 0 1 1-7.21-7.21l7.21-7.2a5.12 5.12 0 0 0 0-7.21l-7.21-7.19a5.09 5.09 0 0 1 7.21-7.2l5.63 5.63Z"/><path class="cls-1" d="M51.4 26.86a3.61 3.61 0 0 1 0-5.09l7.21-7.2a6.6 6.6 0 0 0-9.33-9.33l-5.36 5.36-7.63 7.64-1.42 1.41a6.6 6.6 0 0 0 0 9.33L42 36.11l.59.58L43.92 38l5.36 5.35a6.6 6.6 0 1 0 9.33-9.33Zm5.09 14.4a3.7 3.7 0 0 1-5.09 0l-7.48-7.47L37 26.86a3.61 3.61 0 0 1 0-5.09L51.4 7.36a3.6 3.6 0 0 1 5.09 5.09l-7.21 7.2a6.61 6.61 0 0 0 0 9.33l7.21 7.19a3.61 3.61 0 0 1 0 5.09Z"/></g></g></svg>